<svg xmlns="http://www.w3.org/2000/svg" viewBox="0 0 32 32" width="32" height="32">
  <rect width="32" height="32" rx="4" fill="#722F37"/>
  <g transform="translate(7.0,4.8) scale(0.06902)"><path d="M61.00,253.90 C38.67,251.95 18.78,245.93 13.03,239.39 C11.37,237.49 10.00,235.48 10.00,234.93 C10.00,234.38 10.87,227.98 11.94,220.72 C16.58,189.14 19.02,171.91 20.03,163.55 C20.62,158.63 22.00,148.78 23.09,141.67 C24.18,134.56 24.94,128.66 24.79,128.56 C24.63,128.46 21.58,126.97 18.00,125.24 C9.50,121.12 4.18,116.60 1.89,111.57 C0.19,107.83 0.04,104.24 0.02,67.37 C-0.00,23.19 0.06,22.65 6.11,17.56 C13.99,10.93 29.40,5.59 50.00,2.36 C64.72,0.05 103.60,0.08 117.50,2.40 C141.30,6.39 157.13,12.18 164.00,19.42 L167.50,23.11 L167.78,66.09 C168.03,104.49 167.88,109.44 166.40,112.58 C164.45,116.68 158.73,121.59 151.00,125.77 L145.50,128.74 L145.64,135.91 C145.72,139.85 146.48,147.22 147.34,152.29 C148.20,157.35 150.30,170.72 152.01,182.00 C153.73,193.28 156.23,209.47 157.57,218.00 C158.91,226.53 160.01,234.05 160.01,234.72 C159.99,237.29 153.79,242.82 148.03,245.40 C130.81,253.13 93.73,256.75 61.00,253.90 Z M126.40,245.66 C140.28,242.70 150.68,238.11 151.58,234.55 C152.17,232.17 151.09,224.07 145.97,192.50 C138.69,147.71 136.86,135.36 136.68,130.12 L136.50,124.51 L145.00,120.41 C150.51,117.75 154.82,114.84 157.25,112.15 L161.00,107.99 L161.00,74.41 C161.00,55.94 160.66,41.01 160.25,41.22 C139.42,51.92 118.56,56.06 85.00,56.16 C54.11,56.24 30.04,52.10 13.77,43.88 L8.00,40.97 L8.00,73.84 C8.00,106.38 8.02,106.74 10.28,110.08 C17.06,120.14 41.16,127.39 72.26,128.71 C87.22,129.35 90.59,130.38 87.97,133.54 C86.65,135.13 85.08,135.23 71.51,134.63 C63.25,134.26 53.35,133.53 49.50,133.00 C45.65,132.48 40.23,131.76 37.46,131.41 L32.42,130.77 L31.32,139.14 C29.42,153.54 22.45,202.83 18.91,226.83 C17.94,233.44 18.01,234.35 19.66,236.18 C22.45,239.27 28.24,241.88 37.30,244.14 C53.12,248.09 63.08,248.93 89.50,248.56 C111.64,248.24 115.86,247.91 126.40,245.66 Z M119.00,46.62 C139.09,42.91 150.24,39.05 156.75,33.56 C160.75,30.19 160.90,27.23 157.25,23.74 C142.39,9.51 83.33,3.55 40.11,11.93 C23.14,15.22 8.00,22.76 8.00,27.93 C8.00,35.35 28.26,43.53 56.50,47.51 C69.71,49.37 106.99,48.84 119.00,46.62 Z" fill="#FFFFFF" fill-rule="evenodd"/></g>
</svg>