<svg xmlns="http://www.w3.org/2000/svg" viewBox="0 0 168 298" width="168" height="298"><path d="M71.00,297.34 C41.70,294.49 26.11,289.76 16.33,280.74 C10.06,274.95 9.55,272.44 11.45,256.75 C12.33,249.46 13.26,241.47 13.50,239.00 C14.84,225.76 20.39,172.42 22.55,152.11 C23.92,139.24 24.92,128.64 24.77,128.55 C24.62,128.46 21.58,126.97 18.00,125.24 C9.50,121.12 4.18,116.60 1.89,111.57 C0.19,107.83 0.04,104.24 0.02,67.37 C-0.00,23.19 0.06,22.65 6.11,17.56 C13.99,10.93 29.40,5.59 50.00,2.36 C64.72,0.05 103.60,0.08 117.50,2.40 C141.30,6.39 157.13,12.18 164.00,19.42 L167.50,23.11 L167.78,66.09 C168.03,104.49 167.88,109.44 166.40,112.58 C164.45,116.68 158.72,121.59 151.00,125.76 L145.50,128.74 L145.69,138.59 C145.79,144.01 146.59,154.08 147.46,160.97 C149.90,180.36 153.95,215.41 155.03,226.50 C155.56,232.00 156.93,244.06 158.06,253.29 C160.48,272.96 160.18,274.73 153.38,281.01 C147.66,286.28 138.93,290.37 126.92,293.41 C113.49,296.81 85.68,298.77 71.00,297.34 Z M109.00,288.99 C128.79,285.94 142.86,280.86 148.96,274.54 L152.43,270.96 L150.68,254.73 C149.71,245.80 147.61,227.70 146.00,214.50 C139.77,163.30 136.97,138.23 136.74,131.50 L136.50,124.51 L145.00,120.41 C150.51,117.75 154.82,114.84 157.25,112.15 L161.00,107.99 L161.00,74.41 C161.00,55.94 160.66,41.01 160.25,41.22 C139.42,51.92 118.56,56.06 85.00,56.16 C54.11,56.24 30.04,52.10 13.77,43.88 L8.00,40.97 L8.00,73.84 C8.00,106.38 8.02,106.74 10.28,110.08 C16.99,120.04 41.06,127.35 71.50,128.67 C87.48,129.36 91.66,131.19 87.28,135.57 C85.77,137.09 84.04,137.22 72.48,136.66 C65.29,136.32 54.02,135.09 47.45,133.93 C40.88,132.77 34.83,131.75 34.00,131.66 C32.97,131.55 32.41,132.59 32.22,135.00 C32.07,136.93 31.06,146.15 29.97,155.50 C28.88,164.85 27.31,179.93 26.47,189.00 C25.63,198.07 24.26,211.35 23.43,218.50 C22.59,225.65 21.25,238.25 20.45,246.50 C19.65,254.75 18.73,263.52 18.40,266.00 C17.92,269.70 18.21,271.00 20.03,273.32 C25.02,279.65 37.31,284.65 56.00,287.97 C67.95,290.10 98.04,290.67 109.00,288.99 Z M119.00,46.62 C139.09,42.91 150.24,39.05 156.75,33.56 C160.75,30.19 160.90,27.23 157.25,23.74 C142.39,9.51 83.33,3.55 40.11,11.93 C23.14,15.22 8.00,22.76 8.00,27.93 C8.00,35.35 28.26,43.53 56.50,47.51 C69.71,49.37 106.99,48.84 119.00,46.62 Z" fill="#722F37" fill-rule="evenodd"/></svg>